<?xml version="1.0" encoding="UTF-8"?>
<svg width="390px" height="560px" viewBox="0 0 390 560" version="1.1" xmlns="http://www.w3.org/2000/svg" xmlns:xlink="http://www.w3.org/1999/xlink">
    <title>Group</title>
    <defs>
        <linearGradient x1="38.2648455%" y1="54.9899071%" x2="71.5445554%" y2="95.5629359%" id="linearGradient-1">
            <stop stop-color="#FE5047" offset="0%"></stop>
            <stop stop-color="#FC3461" offset="100%"></stop>
        </linearGradient>
    </defs>
    <g id="Page-1" stroke="none" stroke-width="1" fill="none" fill-rule="evenodd">
        <g id="Artboard" transform="translate(-212.000000, -31.000000)" fill-rule="nonzero">
            <g id="Group" transform="translate(212.000000, 31.000000)">
                <path d="M273.14575,140.0054 L273.14575,171.115 L272.36841,260.56 L380.33041,454.69 C392.47875,476.67 392.10775,503.432 379.35775,525.065 C366.60775,546.698 343.37275,559.987375 318.26375,560.003 L318.26375,560.003 L70.9237503,560.003 C45.8137503,559.987 22.5794103,546.698 9.82975032,525.065 C-2.91990968,503.432 -3.29090968,476.67 8.85709032,454.69 L8.85709032,454.69 L116.81709,260.56 L116.03975,171.115 L116.03975,171.115 L116.03975,140.0054 L273.14575,140.0054 L273.14575,140.0054 Z M242.04157,171.1127 L147.15057,171.1127 L147.92791,264.2927 C147.93961,267.0153 147.24431,269.6989 145.90841,272.07 L145.90841,272.07 L124.930051,312.543785 C158.489051,313.578785 175.670057,318.364452 203.504006,331.655905 C232.136832,345.328843 247.685163,348.06514 275.005197,342.919112 L275.005197,342.919112 L243.28373,272.07 C241.94782,269.6989 241.252511,267.0154 241.26423,264.2927 L241.26423,264.2927 L242.04157,171.1127 Z M263.5,63 C268.470563,63 272.5,67.0294373 272.5,72 L272.5,100 C272.5,104.970563 268.470563,109 263.5,109 L235.5,109 C230.529437,109 226.5,104.970563 226.5,100 L226.5,72 C226.5,67.0294373 230.529437,63 235.5,63 L263.5,63 Z M166,30 C173.179702,30 179,35.8202983 179,43 L179,80 C179,87.1797017 173.179702,93 166,93 L129,93 C121.820298,93 116,87.1797017 116,80 L116,43 C116,35.8202983 121.820298,30 129,30 L166,30 Z M235,0 C238.313708,-6.08718376e-16 241,2.6862915 241,6 L241,25 C241,28.3137085 238.313708,31 235,31 L216,31 C212.686292,31 210,28.3137085 210,25 L210,6 C210,2.6862915 212.686292,6.08718376e-16 216,0 L235,0 Z" id="Combined-Shape" fill="url(#linearGradient-1)"></path>
                <polyline id="Path" fill="#FFFFFF" points="167.671773 422.263116 117.848603 422.263116 117.848603 477.662976 167.671773 477.662976 167.671773 527.527732 223.51313 527.527732 223.015679 477.662976 272.848603 477.662976 272.848603 422.263116 223.51313 422.263116 223.015679 372.408123 167.505956 372.408123"></polyline>
            </g>
        </g>
    </g>
</svg>