<svg width="400" height="96" viewBox="0 0 400 96" fill="none" xmlns="http://www.w3.org/2000/svg">
<path fill-rule="evenodd" clip-rule="evenodd" d="M199.248 72.4445C200.068 72.8889 201.162 73.1283 202.496 73.1283C203.829 73.1283 205.47 73.0257 207.419 72.718L209.231 79.5214C206.598 80.4445 204.034 80.9573 201.47 81.1624C198.906 81.3676 196.615 80.9915 194.564 80.0684C192.513 79.1454 190.838 77.5043 189.573 75.1795C188.308 72.8548 187.658 69.5727 187.658 65.3676V44.1368H180.034V34.0172H182.12C184.615 34.0172 186.838 33.436 188.444 30.906C189.094 29.8462 189.197 28.7522 189.265 25.7778V22.2565H197.231V34.0172H206.632V44.1368H197.231L196.957 66.8035C196.957 68.3078 197.128 69.5385 197.47 70.4274C197.812 71.3163 198.427 72.0001 199.248 72.4445ZM226.188 34.4274C228.239 33.2992 230.872 32.7522 233.983 32.7522C236 32.7522 238.325 33.0257 240.957 33.6411L238.564 42.359C238.342 42.2565 238.12 42.1625 237.897 42.0685V42.0684V42.0684C237.675 41.9744 237.453 41.8804 237.231 41.7778C236.945 41.674 236.62 41.59 236.256 41.4957V41.4956C236.14 41.4657 236.021 41.4347 235.897 41.4018C235.385 41.265 234.838 41.1966 234.256 41.1966C232.41 41.1966 230.701 41.5043 229.094 42.1197C227.521 42.7009 226.154 43.5214 224.991 44.5471C223.829 45.5727 222.94 46.7693 222.256 48.1368C221.607 49.5043 221.265 50.9402 221.265 52.4787L221.162 80.6838H211.863V33.812H219.248L221.162 38.8719C222.427 37.0257 224.137 35.5556 226.188 34.4274ZM316.786 34.2223C319.145 35.2137 321.265 36.7522 323.111 38.8719L324.513 33.812H332.376V80.6838H324.513L323.077 74.3932C321.504 76.5129 319.453 78.0855 316.957 79.1795C314.461 80.2736 311.966 80.8206 309.402 80.8206C306.188 80.8206 303.214 80.2052 300.444 78.9402C297.675 77.6753 295.214 75.9659 293.162 73.812C291.111 71.6582 289.436 69.0599 288.239 66.1539C287.043 63.2479 286.427 60.1026 286.427 56.7864C286.427 53.4701 287.043 50.359 288.239 47.4189C289.436 44.4787 291.077 41.9488 293.162 39.7607C295.248 37.5727 297.675 35.8975 300.444 34.6325C303.214 33.3676 306.222 32.7522 309.402 32.7522C311.966 32.7522 314.427 33.2308 316.786 34.2223ZM318.974 67.9317C320.171 66.4958 321.128 64.8206 321.846 62.906C322.564 60.9915 322.906 58.9402 322.906 56.7864C322.906 54.6325 322.564 52.5813 321.846 50.6667C321.128 48.7522 320.171 47.077 318.974 45.6411C317.778 44.2052 316.342 43.077 314.667 42.2565C312.991 41.436 311.248 41.0257 309.402 41.0257C307.556 41.0257 305.812 41.436 304.137 42.2565C302.461 43.077 301.026 44.2052 299.829 45.6411C298.632 47.077 297.675 48.7522 296.957 50.6667C296.239 52.5813 295.897 54.6325 295.897 56.7864C295.897 58.9402 296.239 60.9915 296.957 62.906C297.675 64.8206 298.632 66.4958 299.829 67.9317C301.026 69.3676 302.461 70.4958 304.137 71.3163C305.812 72.1368 307.556 72.5471 309.402 72.5471C311.248 72.5471 312.991 72.1368 314.667 71.3163C316.342 70.4958 317.778 69.3676 318.974 67.9317ZM175.179 57.7436C173.846 56.5813 172.068 55.5556 169.812 54.5983C167.59 53.6069 164.786 52.718 161.402 51.8975C161.168 51.8339 160.925 51.7703 160.674 51.7047L160.673 51.7043L160.672 51.704C160.115 51.558 159.518 51.4021 158.906 51.2137C158.017 50.9744 157.197 50.6325 156.41 50.2223C155.624 49.812 155.009 49.265 154.462 48.6496C153.915 48.0342 153.641 47.2137 153.641 46.3248C153.641 45.5043 153.88 44.7522 154.359 44.1368C154.838 43.4872 155.419 42.9402 156.137 42.4958C156.855 42.0513 157.607 41.7095 158.427 41.5043C159.248 41.265 160.068 41.1625 160.82 41.1625C163.043 41.1625 164.82 41.6753 166.085 42.7009C167.35 43.7266 168.205 44.9915 168.581 46.53L176.923 44.5129C176.615 42.8035 175.966 41.2308 174.974 39.8291C173.949 38.4274 172.752 37.2308 171.316 36.2394C169.88 35.2479 168.239 34.4616 166.462 33.8804C164.684 33.3334 162.803 33.0257 160.82 33.0257C158.598 33.0257 156.479 33.4018 154.462 34.1197C152.444 34.8377 150.701 35.8291 149.197 37.0941C147.692 38.359 146.496 39.7949 145.607 41.4018C144.718 43.0428 144.273 44.7864 144.273 46.6325C144.273 48.6154 144.684 50.3248 145.47 51.7607C146.256 53.1966 147.35 54.4274 148.718 55.4872C150.085 56.5471 151.692 57.436 153.538 58.1539C155.385 58.8719 157.368 59.5214 159.487 60.0342C160.005 60.1754 160.62 60.3166 161.332 60.4801H161.332L161.333 60.4804H161.333C161.655 60.5542 161.997 60.6329 162.359 60.718C163.521 60.9915 164.615 61.3334 165.675 61.812C166.735 62.2907 167.624 62.8719 168.342 63.5898C169.06 64.3077 169.436 65.1625 169.436 66.1881C169.436 67.0086 169.197 67.7607 168.752 68.3761C168.308 69.0257 167.795 69.5727 167.214 70.0855C165.504 71.4872 163.35 72.2052 160.786 72.2052C158.735 72.2052 156.923 71.7949 155.316 71.0086C153.709 70.2223 152.41 68.6838 151.385 66.4616L143.59 69.983C144.684 73.2308 146.769 75.8291 149.846 77.7778C152.923 79.7266 156.479 80.6838 160.41 80.6838C163.043 80.6838 165.47 80.3077 167.726 79.5898C169.983 78.8719 171.932 77.8462 173.573 76.5129C175.214 75.2137 176.479 73.6411 177.402 71.8633C178.325 70.0855 178.803 68.171 178.803 66.1197C178.803 64.4103 178.53 62.8377 177.983 61.4701C177.436 60.1026 176.513 58.8719 175.179 57.7436ZM281.026 48.2052C279.932 44.6496 278.427 41.7436 276.479 39.453C274.53 37.1625 272.239 35.4531 269.573 34.3932C266.94 33.2992 264.034 32.7522 260.923 32.7522C257.846 32.7522 254.974 33.3676 252.308 34.6325C249.641 35.8633 247.282 37.5727 245.265 39.7607C243.248 41.9488 241.675 44.4787 240.479 47.4189C239.316 50.3248 238.735 53.436 238.735 56.7864C238.735 60.1368 239.35 63.2479 240.615 66.1539C241.846 69.0941 243.556 71.6582 245.744 73.812C247.897 75.9659 250.462 77.6753 253.367 78.9402C256.273 80.2052 259.385 80.8206 262.701 80.8206C266.53 80.8206 270.051 80.1368 273.265 78.8035C276.479 77.4701 279.214 75.6924 281.436 73.436L275.692 67.6924C274.222 69.1625 272.444 70.3248 270.393 71.2479C268.308 72.1368 266.085 72.5813 263.658 72.5813C261.88 72.5813 260.171 72.3077 258.53 71.7265C256.889 71.1454 255.419 70.3248 254.12 69.2992C252.82 68.2394 251.692 67.0086 250.735 65.5727C249.778 64.1368 249.06 62.5983 248.615 60.9231H282.701C282.667 55.9659 282.12 51.7607 281.026 48.2052ZM248.479 52.6496C248.855 50.9744 249.436 49.4701 250.256 48.0684C251.043 46.6667 252 45.436 253.128 44.4445C254.256 43.4189 255.453 42.6325 256.752 42.0513C258.051 41.4701 259.453 41.1966 260.923 41.1966C262.701 41.1966 264.273 41.5043 265.675 42.1197C267.043 42.7351 268.239 43.5556 269.265 44.6154C270.291 45.6753 271.077 46.906 271.658 48.3077C272.239 49.7095 272.581 51.1795 272.718 52.718H248.479V52.6496ZM393.402 36.3761C395.008 37.7778 396.308 39.7266 397.333 42.2223C398.359 44.718 398.872 47.9317 398.872 51.8975V80.6838H390.154V51.7949C390.154 47.8291 389.367 45.0941 387.726 43.5214C386.085 41.9488 383.932 41.1625 381.265 41.1625C379.214 41.1625 377.436 42.0513 375.897 43.7607C374.359 45.4701 373.607 48.2052 373.607 51.8975V80.6496H364.889V51.7607C364.889 47.7949 364.103 45.0599 362.461 43.4872C360.82 41.9146 358.667 41.1283 356 41.1283C354.085 41.1283 352.41 41.8462 350.974 43.3163C349.538 44.7864 348.684 47.1112 348.444 50.2223V80.6496H339.145V33.7778H346.53L348.444 37.7095C349.573 36.3761 350.94 35.2137 352.547 34.2223C354.154 33.2308 356.103 32.7522 358.393 32.7522C359.282 32.7522 360.273 32.8548 361.402 33.0941C362.53 33.3334 363.658 33.7095 364.855 34.2565C366.017 34.7693 367.145 35.5214 368.239 36.4445C369.333 37.3676 370.256 38.5642 371.008 40.0342C372.103 38.0513 373.709 36.3419 375.932 34.906C378.154 33.4701 380.479 32.7522 382.974 32.7522C384.65 32.7522 386.393 32.9915 388.239 33.5043C390.085 34.0172 391.795 34.9744 393.402 36.3761Z" fill="black"/>
<path fill-rule="evenodd" clip-rule="evenodd" d="M133.055 30.877L89.3275 33.9897L71.0164 13.1587C69.6499 11.6195 67.2585 11.6195 65.892 13.1245L47.2735 33.9555L3.6481 30.877C0.778476 30.6718 -1.03213 33.9213 0.641826 36.2814L31.3197 78.9696C31.9688 79.8588 32.9936 80.4062 34.0868 80.4062H102.685C103.778 80.4062 104.803 79.8588 105.452 78.9696L136.096 36.2814C137.77 33.9213 135.959 30.6718 133.055 30.877ZM41.5002 40.4202L36.0342 46.5429L14.8534 38.5047L41.5002 40.4202ZM13.077 41.6174L63.4325 60.4643L34.4284 71.3073L13.077 41.6174ZM66.6776 73.6335H38.2889L66.6776 62.9956V73.6335ZM66.7118 57.9675L43.0031 49.04L66.7118 22.2231V57.9675ZM121.679 38.5047L100.464 46.5429L94.9983 40.4202L121.679 38.5047ZM70.094 22.2573L93.8027 49.04L70.094 57.9675V22.2573ZM70.094 73.6335V62.9956L98.4831 73.6335H70.094ZM102.309 71.3073L73.3053 60.4643L123.661 41.6174L102.309 71.3073Z" fill="#005FFF"/>
</svg>
